<?xml version="1.0" standalone="no"?>
<!DOCTYPE svg PUBLIC "-//W3C//DTD SVG 20010904//EN"
 "http://www.w3.org/TR/2001/REC-SVG-20010904/DTD/svg10.dtd">
<svg version="1.0" xmlns="http://www.w3.org/2000/svg"
 width="1114.000000pt" height="1114.000000pt" viewBox="0 0 1114.000000 1114.000000"
 preserveAspectRatio="xMidYMid meet">
<metadata>
Created by potrace 1.14, written by Peter Selinger 2001-2017
</metadata>
<g transform="translate(0.000000,1114.000000) scale(0.100000,-0.100000)"
fill="#000000" stroke="none">
<path d="M9225 9073 c-496 -45 -903 -221 -1205 -523 -313 -313 -480 -725 -480
-1185 0 -190 27 -362 81 -529 42 -127 157 -354 234 -461 84 -117 281 -354 441
-530 543 -599 681 -883 661 -1364 -12 -294 -95 -506 -268 -686 -94 -97 -170
-155 -282 -212 -179 -93 -355 -132 -622 -140 -502 -15 -817 135 -976 463 -126
261 -140 657 -40 1131 21 99 25 136 17 139 -7 3 -56 3 -110 2 l-98 -3 -382
-940 c-210 -518 -390 -960 -399 -983 l-17 -42 119 0 119 0 175 248 c97 136
182 255 190 266 13 17 18 12 70 -67 186 -279 470 -438 897 -503 157 -24 506
-24 680 0 578 79 1063 326 1380 704 406 484 482 1127 199 1697 -59 118 -221
362 -350 528 -85 109 -215 266 -509 612 -61 72 -140 171 -175 220 -84 117
-180 308 -206 410 -55 220 -43 554 27 777 110 347 348 557 729 643 95 22 413
31 527 16 399 -53 635 -254 694 -592 28 -161 -1 -496 -65 -747 -15 -56 -16
-74 -7 -78 7 -3 59 -3 115 -2 l102 3 290 740 c159 407 305 779 323 828 l35 87
-124 0 -123 0 -168 -190 c-92 -104 -170 -190 -172 -190 -2 0 -42 36 -88 80
-277 261 -624 384 -1071 378 -70 -1 -146 -3 -168 -5z"/>
<path d="M2366 8992 c-15 -25 -63 -162 -58 -166 4 -2 134 -34 290 -72 265 -64
283 -69 278 -89 -7 -27 -2133 -5126 -2141 -5133 -3 -3 -152 -38 -332 -76
l-326 -71 -28 -67 c-15 -37 -30 -76 -34 -87 l-6 -21 1189 0 1189 0 38 85 c21
47 36 87 34 89 -2 2 -200 34 -439 71 -239 38 -438 71 -442 74 -5 5 587 1474
898 2229 l47 112 288 0 288 0 351 -1062 c193 -585 391 -1182 439 -1328 l88
-265 759 -3 760 -2 23 85 c14 47 22 87 20 89 -2 2 -181 34 -397 72 -217 38
-398 71 -403 74 -6 5 -859 2360 -859 2375 0 2 33 8 73 15 39 6 142 27 227 47
920 210 1540 756 1674 1473 71 379 17 748 -147 998 -184 282 -506 451 -1021
535 -127 20 -166 21 -1223 24 -637 2 -1094 0 -1097 -5z m2027 -317 c55 -8 120
-21 145 -29 303 -90 491 -293 558 -600 25 -113 29 -331 10 -465 -96 -650 -653
-1191 -1382 -1342 -103 -22 -137 -23 -583 -27 -390 -3 -473 -1 -468 10 49 119
1039 2453 1043 2459 9 16 566 11 677 -6z"/>
</g>
</svg>
